HIERARCHY
ROOT hip
{
	OFFSET 0.000000 0.000000 0.000000 
	CHANNELS 6 Xposition Yposition Zposition Xrotation Zrotation Yrotation
	JOINT abdomen
	{
		OFFSET 0.000000 3.402643 0.000000 
		CHANNELS 3 Xrotation Zrotation Yrotation
		JOINT chest
		{
			OFFSET 0.000000 8.438565 -0.680529 
			CHANNELS 3 Xrotation Zrotation Yrotation
			JOINT neck
			{
				OFFSET 0.000000 10.207942 -0.272212 
				CHANNELS 3 Xrotation Zrotation Yrotation
				JOINT head
				{
					OFFSET 0.000000 3.130431 0.000000 
					CHANNELS 3 Xrotation Zrotation Yrotation
					End Site
					{
						OFFSET 0.000000 3.130435 0.000000 
					}
				}
			}
			JOINT lCollar
			{
				OFFSET 3.470700 6.669187 -0.816635 
				CHANNELS 3 Yrotation Zrotation Xrotation
				JOINT lShldr
				{
					OFFSET 3.198488 0.000000 0.000000 
					CHANNELS 3 Zrotation Yrotation Xrotation
					JOINT lForeArm
					{
						OFFSET 10.139888 0.000000 0.000000 
						CHANNELS 3 Yrotation Zrotation Xrotation
						JOINT lHand
						{
							OFFSET 8.370511 0.000000 0.000000 
							CHANNELS 3 Zrotation Yrotation Xrotation
							End Site
							{
								OFFSET 4.083176 0.000000 0.000000 
							}
						}
					}
				}
			}
			JOINT rCollar
			{
				OFFSET -3.470700 6.669187 -0.816635 
				CHANNELS 3 Yrotation Zrotation Xrotation
				JOINT rShldr
				{
					OFFSET -3.198488 0.000000 0.000000 
					CHANNELS 3 Zrotation Yrotation Xrotation
					JOINT rForeArm
					{
						OFFSET -10.139888 0.000000 0.000000 
						CHANNELS 3 Yrotation Zrotation Xrotation
						JOINT rHand
						{
							OFFSET -8.370511 0.000000 0.000000 
							CHANNELS 3 Zrotation Yrotation Xrotation
							End Site
							{
								OFFSET -4.083176 0.000000 0.000000 
							}
						}
					}
				}
			}
		}
	}
	JOINT lThigh
	{
		OFFSET 5.308129 -1.633274 1.361059 
		CHANNELS 3 Xrotation Zrotation Yrotation
		JOINT lShin
		{
			OFFSET -2.041588 -20.007561 0.000000 
			CHANNELS 3 Xrotation Zrotation Yrotation
			JOINT lFoot
			{
				OFFSET 0.000000 -19.190928 -1.224953 
				CHANNELS 3 Xrotation Yrotation Zrotation
				End Site
				{
					OFFSET 0.000000 -2.449906 4.627600 
				}
			}
		}
	}
	JOINT rThigh
	{
		OFFSET -5.308129 -1.633274 1.361059 
		CHANNELS 3 Xrotation Zrotation Yrotation
		JOINT rShin
		{
			OFFSET 2.041588 -20.007561 0.000000 
			CHANNELS 3 Xrotation Zrotation Yrotation
			JOINT rFoot
			{
				OFFSET 0.000000 -19.190928 -1.224953 
				CHANNELS 3 Xrotation Yrotation Zrotation
				End Site
				{
					OFFSET 0.000000 -2.449906 4.627600 
				}
			}
		}
	}
}
MOTION
Frames: 6
Frame Time: 0.033333
1.956710 48.229862 2.370631 1.061393 -2.965742 -2.581743 0.000000 0.000000 0.000000 -2.474236 2.499785 -0.752515 3.769070 1.550745 -2.901442 13.371838 4.912744 -3.498594 -2.889210 0.091010 -1.609293 -31.702112 21.032108 -14.895463 -37.221191 1.650961 12.369884 -7.040408 -4.291372 -2.907058 2.362601 2.759713 -1.787807 26.707672 -24.261421 -4.180202 35.501007 2.143964 16.140177 -2.102513 1.104257 -3.518584 8.456484 10.995839 8.952743 0.885063 -1.254114 7.178922 -7.884610 0.624132 -9.084332 7.294323 -7.676291 -7.980114 -1.633973 3.782493 -16.986189 -2.599097 -0.222202 9.010134 
2.102469 48.264599 2.208309 1.125429 -3.091124 -3.120176 0.000000 0.000000 0.000000 -2.086673 2.431500 -0.615509 3.177672 1.774324 -3.341264 14.048645 5.854555 -4.053969 -2.967895 -1.232402 -1.287473 -35.574623 21.003105 -11.078529 -38.380608 0.059612 11.762154 -12.660918 -5.390794 -2.401630 3.105714 5.758348 -1.549697 29.599123 -25.123692 -1.379530 38.406845 2.674473 17.554611 -0.976043 1.907582 -3.468163 8.298724 10.867895 8.850577 0.893718 -1.230701 7.549500 -7.786948 0.613896 -8.850759 6.770465 -7.708776 -7.797091 -1.462643 3.668028 -16.902294 -2.265770 -0.220708 9.096057 
2.285051 48.299919 2.020859 1.017111 -3.294318 -3.590400 0.000000 0.000000 0.000000 -1.613212 2.470506 -0.723247 2.972389 1.880729 -3.751823 14.421268 6.446262 -4.363291 -3.421569 -2.145642 -0.868095 -41.009029 21.286921 -9.027682 -39.472874 -0.617447 15.964322 -18.667501 -5.368312 -1.929167 3.412147 7.635828 -1.200905 33.461689 -25.189827 0.703259 41.191639 3.055883 19.311792 3.596044 -0.434658 -3.373600 7.997171 10.810298 8.783992 1.429412 -1.251930 8.167554 -7.860026 0.588244 -8.607165 6.390779 -7.748173 -7.693022 -1.091433 3.628437 -16.357409 -2.116364 -0.196685 9.217011 
2.447423 48.289249 1.769277 1.376276 -3.135844 -4.264246 0.000000 0.000000 0.000000 -1.529999 2.167672 -0.947696 2.644358 1.782443 -4.142566 14.622243 6.485127 -4.372991 -3.873414 -3.177986 -0.809639 -45.634262 22.162897 -5.551958 -41.491295 -1.871963 20.827604 -16.038019 -3.134856 -2.480118 3.616414 9.127225 -1.185834 37.800716 -24.992495 2.757425 41.406765 4.020657 20.782162 2.530178 -0.270912 -3.394128 6.615561 10.638894 8.436397 3.051033 -1.423052 9.236813 -8.384877 0.659917 -8.489921 5.287676 -8.079698 -7.611941 -0.390735 3.582133 -15.750698 -2.081630 -0.247974 9.342716 
2.646500 48.319332 1.553319 1.010315 -3.717817 -4.727112 0.000000 0.000000 0.000000 -0.873634 2.401516 -1.505040 2.894788 1.985604 -4.660815 14.586614 6.709169 -4.365516 -4.729498 -3.547567 -0.204594 -50.454678 22.496637 -3.018962 -42.524986 -2.882024 23.300016 -18.151796 -1.318926 -2.671452 3.140257 9.821419 -0.604444 43.369331 -23.806997 3.944112 40.967136 4.537346 23.334883 2.223155 -0.699324 -3.418060 5.953713 11.050618 8.646871 4.740966 -1.443238 9.549246 -8.957417 0.690343 -8.349037 5.462409 -7.834497 -7.514964 -0.895352 3.714677 -15.320215 -1.136818 -0.127225 9.184348 
2.839004 48.337429 1.267910 1.104272 -3.789455 -5.755407 0.000000 0.000000 0.000000 -0.406540 2.342856 -1.583104 2.841083 1.790008 -5.012195 14.630564 6.668085 -4.600565 -5.259242 -4.401796 0.185718 -55.437828 22.406225 -1.610457 -44.495232 -3.389097 22.518621 -18.550974 0.884923 -3.045886 2.854166 10.294031 -0.179720 48.553116 -23.794449 3.427308 41.733353 4.706695 24.090647 1.323698 -2.639872 -3.485977 5.229317 10.950320 8.564131 5.677516 -1.600127 10.588570 -9.160051 0.654914 -8.133470 4.617925 -8.007443 -7.364273 -0.488137 3.708680 -14.617065 -0.384934 -0.093735 9.248287 
